<svg width="2510" height="2884" viewBox="0 0 2510 2884" fill="none" xmlns="http://www.w3.org/2000/svg">
<rect width="2510" height="2884" fill="#1E1E1E"/>
<g clip-path="url(#clip0_0_1)">
<mask id="mask0_0_1" style="mask-type:luminance" maskUnits="userSpaceOnUse" x="0" y="0" width="2510" height="2884">
<path d="M2509.99 0H0V2884H2509.99V0Z" fill="white"/>
</mask>
<g mask="url(#mask0_0_1)">
<path d="M1108.43 2560.53C1134.99 2560.53 1156.52 2538.19 1156.52 2510.64C1156.52 2483.09 1134.99 2460.75 1108.43 2460.75C1081.87 2460.75 1060.34 2483.09 1060.34 2510.64C1060.34 2538.19 1081.87 2560.53 1108.43 2560.53Z" stroke="#FBB040" stroke-width="70" stroke-miterlimit="10" stroke-linecap="round"/>
<path d="M764.336 1293.5L973.799 1830.89L1310.51 1689.66" stroke="#F9ED32" stroke-width="70" stroke-miterlimit="10" stroke-linecap="round"/>
<path d="M679.418 1499.44C705.978 1499.44 727.511 1477.1 727.511 1449.55C727.511 1422 705.978 1399.66 679.418 1399.66C652.858 1399.66 631.325 1422 631.325 1449.55C631.325 1477.1 652.858 1499.44 679.418 1499.44Z" stroke="#8DC63F" stroke-width="70" stroke-miterlimit="10" stroke-linecap="round"/>
<path d="M697.441 1495.8L906.904 2033.19L1108.61 1948.59" stroke="#8DC63F" stroke-width="70" stroke-miterlimit="10" stroke-linecap="round"/>
<path d="M721.213 820.8C747.773 820.8 769.306 798.463 769.306 770.912C769.306 743.361 747.773 721.024 721.213 721.024C694.653 721.024 673.12 743.361 673.12 770.912C673.12 798.463 694.653 820.8 721.213 820.8Z" stroke="#00A79D" stroke-width="70" stroke-miterlimit="10" stroke-linecap="round"/>
<path d="M289.137 466.464C315.698 466.464 337.23 444.129 337.23 416.576C337.23 389.024 315.698 366.688 289.137 366.688C262.576 366.688 241.044 389.024 241.044 416.576C241.044 444.129 262.576 466.464 289.137 466.464Z" stroke="#BE1E2D" stroke-width="70" stroke-miterlimit="10" stroke-linecap="round"/>
<path d="M462.93 544.759C489.491 544.759 511.023 522.423 511.023 494.871C511.023 467.318 489.491 444.983 462.93 444.983C436.369 444.983 414.837 467.318 414.837 494.871C414.837 522.423 436.369 544.759 462.93 544.759Z" stroke="#00A79D" stroke-width="70" stroke-miterlimit="10" stroke-linecap="round"/>
<path d="M729.446 231.967L333.749 397.928" stroke="#BE1E2D" stroke-width="70" stroke-miterlimit="10" stroke-linecap="round"/>
<path d="M788.652 358.255L507.519 476.169" stroke="#00A79D" stroke-width="70" stroke-miterlimit="10" stroke-linecap="round"/>
<path d="M703.184 724.658L592.444 440.546" stroke="#00A79D" stroke-width="70" stroke-miterlimit="10" stroke-linecap="round"/>
<path d="M403.403 784.969C429.965 784.969 451.497 762.633 451.497 735.081C451.497 707.53 429.965 685.193 403.403 685.193C376.842 685.193 355.31 707.53 355.31 735.081C355.31 762.633 376.842 784.969 403.403 784.969Z" stroke="#EC008C" stroke-width="70" stroke-miterlimit="10" stroke-linecap="round"/>
<path d="M421.433 781.329L554.49 1122.71L555.349 1124.91" stroke="#EC008C" stroke-width="70" stroke-miterlimit="10" stroke-linecap="round"/>
<path d="M573.378 1221.04C599.938 1221.04 621.471 1198.71 621.471 1171.16C621.471 1143.6 599.938 1121.27 573.378 1121.27C546.817 1121.27 525.285 1143.6 525.285 1171.16C525.285 1198.71 546.817 1221.04 573.378 1221.04Z" stroke="#EC008C" stroke-width="70" stroke-miterlimit="10" stroke-linecap="round"/>
<path d="M798.471 1019.02C825.031 1019.02 846.564 996.679 846.564 969.127C846.564 941.576 825.031 919.239 798.471 919.239C771.911 919.239 750.378 941.576 750.378 969.127C750.378 996.679 771.911 1019.02 798.471 1019.02Z" stroke="#EF4136" stroke-width="70" stroke-miterlimit="10" stroke-linecap="round"/>
<path d="M816.5 1015.37L949.558 1356.75L950.416 1358.95" stroke="#EF4136" stroke-width="70" stroke-miterlimit="10" stroke-linecap="round"/>
<path d="M968.445 1455.09C995.005 1455.09 1016.54 1432.75 1016.54 1405.2C1016.54 1377.65 995.005 1355.31 968.445 1355.31C941.886 1355.31 920.352 1377.65 920.352 1405.2C920.352 1432.75 941.886 1455.09 968.445 1455.09Z" stroke="#EF4136" stroke-width="70" stroke-miterlimit="10" stroke-linecap="round"/>
<path d="M1153.19 1979.78C1179.75 1979.78 1201.28 1957.44 1201.28 1929.89C1201.28 1902.34 1179.75 1880 1153.19 1880C1126.63 1880 1105.1 1902.34 1105.1 1929.89C1105.1 1957.44 1126.63 1979.78 1153.19 1979.78Z" stroke="#8DC63F" stroke-width="70" stroke-miterlimit="10" stroke-linecap="round"/>
<path d="M1268.91 2652.98C1295.47 2652.98 1317 2630.64 1317 2603.09C1317 2575.54 1295.47 2553.2 1268.91 2553.2C1242.35 2553.2 1220.81 2575.54 1220.81 2603.09C1220.81 2630.64 1242.35 2652.98 1268.91 2652.98Z" stroke="#FBB040" stroke-width="70" stroke-miterlimit="10" stroke-linecap="round"/>
<path d="M1319.03 2094.72C1345.59 2094.72 1367.13 2072.38 1367.13 2044.83C1367.13 2017.28 1345.59 1994.94 1319.03 1994.94C1292.47 1994.94 1270.94 2017.28 1270.94 2044.83C1270.94 2072.38 1292.47 2094.72 1319.03 2094.72Z" stroke="#2E3192" stroke-width="70" stroke-miterlimit="10" stroke-linecap="round"/>
<path d="M871.103 2233.76L1274.8 2064.44" stroke="#2E3192" stroke-width="70" stroke-miterlimit="10" stroke-linecap="round"/>
<path d="M925.94 2360.88L1276.26 2213.96" stroke="#FBB040" stroke-width="70" stroke-miterlimit="10" stroke-linecap="round"/>
<path d="M1250.88 2556.84L1140.14 2272.73" stroke="#FBB040" stroke-width="70" stroke-miterlimit="10" stroke-linecap="round"/>
<path d="M1090.4 2464.39L1035.46 2323.44" stroke="#FBB040" stroke-width="70" stroke-miterlimit="10" stroke-linecap="round"/>
<path d="M500.076 95.0247C688.67 95.0247 767.771 300.943 767.771 300.943L978.533 838.89L1653.55 554.321C1653.55 554.321 1707.12 529.65 1774.28 529.656C1850.3 529.656 1943.75 561.275 1996.55 696.074C2096.02 949.956 1852.49 1062.09 1852.49 1062.09L1177.47 1346.65L1373.57 1847.16C1432.78 1998.31 1501.12 2153.11 1628.54 2153.11C1650.54 2153.11 1674.34 2148.5 1700.11 2138.44C1871.3 2061.5 1821.73 1907.95 1765.85 1765.32L1768.57 1772.25C1768.57 1772.25 1665.09 1490.68 1925.5 1380.9C1970.45 1361.95 2010.92 1354.11 2047.12 1354.11C2220.59 1354.11 2295.94 1534.25 2295.94 1534.25C2295.94 1534.25 2465.02 1823.64 2405.87 2130.57C2334.98 2498.24 2145.69 2603.87 1929.37 2695.07C1769.97 2762.27 1650.3 2788.98 1542.48 2788.98C1470.18 2788.98 1403.2 2776.97 1333.15 2757.11C1243.95 2731.81 1174.59 2684.28 1111.13 2632.98C1000.18 2543.3 928.843 2377.33 875.883 2242.19L617.492 1582.73L442.725 1656.41C442.725 1656.41 405.814 1670.42 355.247 1670.42C280.589 1670.42 176.169 1639.85 116.866 1488.49C17.3994 1234.62 243.786 1148.65 243.786 1148.65L418.553 1074.97L207.791 537.02C207.791 537.02 94.0391 240.888 374.027 122.819C420.562 103.221 462.483 95.0247 500.076 95.0247ZM500.076 0C448.307 0 394.294 11.7 339.531 34.785C258.449 68.9701 195.979 119.298 153.869 184.372C135.365 213.041 120.925 244.319 110.992 277.246C102.254 306.396 96.7449 336.483 94.5715 366.926C92.6844 393.231 92.9426 419.655 95.3444 445.915C97.2802 467.239 100.483 488.418 104.934 509.332C112.446 544.694 121.046 567.885 122.683 572.173L122.803 572.476L122.918 572.779L299.196 1022.7L210.293 1060.17C201.235 1063.78 172.58 1076.17 139.143 1100.35C117.306 1116.07 97.2413 1134.27 79.3249 1154.63C56.704 1180.49 38.5833 1209.17 25.4665 1239.89C8.23886 1280.24 -0.297646 1323.92 0.00579873 1369.72C0.360771 1419.02 11.1244 1470.99 31.9934 1524.27C49.5474 1569.07 71.7846 1608.48 98.0926 1641.4C122.838 1672.38 151.505 1698.07 183.303 1717.78C211.377 1735.13 241.848 1747.93 273.655 1755.72C300.396 1762.24 327.778 1765.51 355.247 1765.44C382.869 1765.43 410.41 1762.35 437.401 1756.26C457.525 1751.73 470.671 1746.98 474.22 1745.63L475.732 1745.03L477.215 1744.4L567.103 1706.51L790.965 2277.91C817.874 2346.54 850.904 2426.8 892.161 2501.73C915.217 2543.59 938.433 2579.68 963.155 2612.05C991.982 2649.81 1022.81 2682.06 1054.76 2707.9C1096.02 2741.26 1131.74 2766.51 1167.18 2787.39C1213.76 2814.83 1260.12 2834.9 1308.93 2848.73C1393.71 2872.77 1467.9 2883.96 1542.41 2883.96C1605.08 2883.96 1668.73 2876.07 1737.01 2859.8C1806.22 2843.32 1880.4 2818.23 1963.81 2783.07C2013.91 2761.94 2072.79 2735.92 2129.64 2703.07C2190.63 2667.82 2241.74 2629.09 2285.89 2584.66C2310.89 2559.48 2333.86 2532.23 2354.59 2503.18C2376.77 2471.94 2396.45 2438.87 2413.43 2404.31C2431.3 2368.08 2447.21 2328.58 2460.7 2286.86C2474.48 2244.31 2486.23 2197.99 2495.63 2149.17C2510.98 2069.59 2514.01 1984.85 2504.64 1897.36C2497.29 1828.71 2482.31 1758.19 2460.12 1687.71C2427.37 1583.71 2388.16 1509.87 2377.19 1490.14C2369.29 1472.97 2345.64 1426.11 2303.55 1379.34C2272.86 1345.23 2238.45 1317.81 2201.29 1297.87C2153.35 1272.13 2101.48 1259.09 2047.11 1259.09C1996.73 1259.09 1944.18 1270.45 1891.01 1292.87C1814.29 1325.2 1755.06 1373.23 1714.92 1435.61C1682.38 1486.19 1663.25 1544.84 1658.08 1609.94C1650.75 1702.17 1673.92 1779.54 1681.18 1801.02L1680.98 1801.1C1703.81 1859.37 1728.04 1925.56 1726.58 1973.5C1725.91 1995.32 1719.91 2006.6 1715.46 2013.18C1706.2 2026.88 1689.5 2039.36 1665.81 2050.28C1652 2055.46 1639.48 2058.09 1628.54 2058.09C1615.69 2058.09 1604.69 2054.57 1592.89 2046.68C1578.87 2037.32 1564.26 2021.91 1549.54 2000.89C1514.32 1950.69 1484.04 1876.77 1458.43 1811.38L1296.83 1398.91L1886.96 1150.12L1888.31 1149.53L1889.64 1148.93C1897.85 1145.15 1971.59 1109.85 2031.91 1035.44C2070.1 988.328 2094.97 935.661 2105.83 878.866C2119.16 809.23 2110.93 735.693 2081.39 660.309C2065.36 619.33 2045.01 583.208 2020.97 552.866C1997.95 523.83 1971.21 499.658 1941.49 481.003C1914.69 464.249 1885.56 451.878 1855.13 444.324C1828.65 437.8 1801.51 434.546 1774.29 434.631C1694.82 434.631 1631.16 460.923 1618.15 466.702L1028.91 715.079L852.747 265.44C849.552 257.208 825.048 196.547 773.634 135.476C741.372 97.1628 704.993 66.3451 665.511 43.8896C614.332 14.7883 558.67 0.00593904 500.082 0H500.076Z" fill="#40378A"/>
<path d="M1765.97 1765.08L1766.07 1765.37" stroke="#EC008C" stroke-width="70" stroke-miterlimit="10"/>
</g>
</g>
<defs>
<clipPath id="clip0_0_1">
<rect width="2510" height="2884" fill="white"/>
</clipPath>
</defs>
</svg>
